<svg width="197" height="43" viewBox="0 0 197 43" fill="none" xmlns="http://www.w3.org/2000/svg">
<g clip-path="url(#clip0_254_94)">
<path d="M196.999 0.00195312H88.9588V12.889H196.999V0.00195312Z" fill="#382E2D"/>
<path d="M93.9884 2.60449H94.9968V10.3599H93.9884V2.60449Z" fill="white"/>
<path d="M98.9644 3.20085C98.9644 3.78848 98.5491 4.36928 97.712 4.92275L97.4088 4.47177C97.72 4.26421 97.9906 3.99761 98.2064 3.68598H98.1668C98.0918 3.68422 98.0179 3.66704 97.9493 3.63543C97.8808 3.60382 97.8189 3.55842 97.7674 3.50185C97.7159 3.44528 97.6758 3.37866 97.6493 3.30588C97.6228 3.2331 97.6105 3.1556 97.6132 3.07786C97.6216 2.90262 97.6948 2.73746 97.8175 2.61662C97.9402 2.49577 98.103 2.42849 98.2723 2.42871C98.3678 2.42843 98.4623 2.44864 98.5499 2.48806C98.6375 2.52749 98.7163 2.58528 98.7813 2.6578C98.8463 2.73033 98.8961 2.81601 98.9276 2.90947C98.9591 3.00293 98.9716 3.10213 98.9644 3.20085Z" fill="white"/>
<path d="M101.278 10.3599V2.60449H101.759L104.989 7.53107L108.199 2.60449H108.693V10.3599H107.685V5.12587L105.114 9.04115H104.851L102.28 5.12587V10.3599H101.278Z" fill="white"/>
<path d="M115.099 10.3604V2.60496H117.887C118.353 2.5801 118.819 2.66143 119.252 2.84322C119.685 3.02502 120.074 3.30287 120.392 3.65725C121.043 4.44547 121.379 5.46293 121.328 6.49975C121.383 7.53458 121.039 8.54967 120.372 9.32178C120.037 9.67659 119.632 9.95288 119.185 10.132C118.739 10.3112 118.26 10.3891 117.782 10.3604H115.099ZM116.114 9.36278H117.821C118.162 9.3811 118.502 9.31791 118.815 9.17808C119.128 9.03826 119.406 8.82558 119.627 8.55649C120.073 7.97484 120.306 7.24899 120.286 6.50659C120.314 5.76304 120.079 5.03452 119.627 4.4567C119.406 4.18677 119.129 3.97306 118.816 3.83208C118.502 3.69109 118.162 3.62659 117.821 3.64357H116.114V9.36278Z" fill="white"/>
<path d="M123.786 10.3599V2.60449H128.439V3.6021H124.794V5.93215H128.169V6.92976H124.794V9.34865H128.439V10.3463L123.786 10.3599Z" fill="white"/>
<path d="M130.292 8.89033L131.043 8.25487C131.194 8.61858 131.444 8.92897 131.763 9.14846C132.081 9.36796 132.453 9.48715 132.836 9.49164C133.686 9.49164 134.213 8.97916 134.213 8.31636C134.213 7.89272 133.95 7.53741 133.429 7.23676C133.297 7.16159 133.033 7.0386 132.664 6.85411C132.295 6.66962 132.005 6.53295 131.821 6.41679C131.493 6.23942 131.217 5.97524 131.02 5.65114C130.823 5.32705 130.713 4.95465 130.7 4.5719C130.692 4.29237 130.742 4.01433 130.848 3.7571C130.954 3.49987 131.113 3.26959 131.313 3.08229C131.76 2.65983 132.35 2.43863 132.954 2.46732C133.383 2.45338 133.809 2.55114 134.193 2.75167C134.576 2.9522 134.905 3.24908 135.149 3.61526L134.49 4.29856C134.321 4.04493 134.096 3.83732 133.833 3.69337C133.57 3.54943 133.278 3.4734 132.981 3.47177C132.836 3.45375 132.688 3.46702 132.548 3.51075C132.408 3.55447 132.279 3.6277 132.167 3.72586C132.056 3.82402 131.965 3.94499 131.901 4.08117C131.837 4.21735 131.801 4.3658 131.794 4.51722C131.802 4.73102 131.868 4.93814 131.985 5.11467C132.102 5.29119 132.264 5.42994 132.453 5.51485C132.734 5.68771 133.025 5.84287 133.323 5.97949C133.778 6.19815 134.095 6.36897 134.266 6.47147C134.588 6.64116 134.859 6.89898 135.049 7.21699C135.24 7.53499 135.343 7.90102 135.347 8.27536C135.357 8.5813 135.299 8.8855 135.176 9.1641C135.054 9.4427 134.871 9.68813 134.642 9.88112C134.146 10.3046 133.517 10.5258 132.875 10.5029C132.34 10.5227 131.811 10.3808 131.352 10.0945C130.894 9.80822 130.525 9.38985 130.292 8.89033Z" fill="white"/>
<path d="M137.878 2.60449H138.893V10.3599H137.878V2.60449Z" fill="white"/>
<path d="M142.195 9.34843C141.839 8.97383 141.559 8.52822 141.373 8.03849C141.188 7.54877 141.1 7.02508 141.114 6.49907C141.097 5.96382 141.189 5.43085 141.385 4.93508C141.58 4.43931 141.874 3.99196 142.248 3.62238C142.609 3.24863 143.039 2.95432 143.513 2.75706C143.986 2.55981 144.493 2.46368 145.003 2.47445C145.591 2.46897 146.173 2.59352 146.711 2.83979C147.248 3.08605 147.729 3.44836 148.121 3.90254L147.402 4.58584C147.104 4.2338 146.736 3.95354 146.323 3.76468C145.909 3.57583 145.461 3.48295 145.01 3.49256C144.631 3.48397 144.255 3.55526 143.903 3.70208C143.552 3.84891 143.233 4.06821 142.966 4.34668C142.696 4.63002 142.484 4.96766 142.343 5.33893C142.203 5.7102 142.137 6.10729 142.149 6.50591C142.137 6.89663 142.203 7.28575 142.34 7.64959C142.478 8.01343 142.686 8.34442 142.951 8.62243C143.216 8.90044 143.533 9.11965 143.882 9.26677C144.232 9.4139 144.606 9.48586 144.983 9.47826C145.433 9.46958 145.877 9.36848 146.289 9.18082C146.7 8.99315 147.072 8.72265 147.382 8.38498V6.84072H144.878V5.87728H148.332V8.84962C147.92 9.3684 147.402 9.78456 146.814 10.0673C146.226 10.35 145.585 10.492 144.937 10.4827C144.43 10.4982 143.924 10.4055 143.453 10.2104C142.981 10.0153 142.553 9.72192 142.195 9.34843Z" fill="white"/>
<path d="M155.832 2.60449H156.867V10.3599H156.339L151.858 4.89355V10.3599H150.856V2.60449H151.31L155.865 8.13922L155.832 2.60449Z" fill="white"/>
<path d="M159.727 10.3599V2.60449H164.387V3.6021H160.742V5.93215H164.117V6.92976H160.749V9.34865H164.393V10.3463L159.727 10.3599Z" fill="white"/>
<path d="M166.905 10.3601V2.60468H169.687C170.154 2.58068 170.621 2.66236 171.054 2.84407C171.488 3.02579 171.878 3.30318 172.198 3.65697C172.848 4.44587 173.181 5.46348 173.127 6.49948C173.156 7.01145 173.087 7.52421 172.924 8.00843C172.761 8.49266 172.508 8.93886 172.178 9.3215C171.843 9.67595 171.438 9.952 170.991 10.1311C170.545 10.3103 170.066 10.3883 169.588 10.3601H166.905ZM167.914 9.3625H169.628C169.967 9.38081 170.306 9.31758 170.618 9.17772C170.93 9.03787 171.207 8.82516 171.427 8.55621C171.872 7.97456 172.106 7.24872 172.086 6.50632C172.113 5.76276 171.879 5.03425 171.427 4.45642C171.207 4.18663 170.931 3.97293 170.619 3.8319C170.307 3.69088 169.968 3.62633 169.628 3.64329H167.914V9.3625Z" fill="white"/>
<path d="M184.503 8.13828C184.507 8.42831 184.455 8.71618 184.349 8.98492C184.244 9.25366 184.088 9.49782 183.89 9.70302C183.668 9.93344 183.402 10.1133 183.11 10.2309C182.817 10.3486 182.503 10.4015 182.19 10.3863H179.099V2.60355H182.058C182.335 2.58821 182.612 2.6325 182.872 2.73363C183.132 2.83477 183.368 2.99054 183.567 3.19118C183.741 3.36978 183.879 3.5828 183.971 3.81757C184.064 4.05234 184.111 4.30406 184.108 4.55778C184.114 4.89511 184.021 5.22648 183.841 5.50741C183.661 5.78833 183.402 6.00536 183.099 6.12938C183.519 6.24859 183.887 6.51264 184.142 6.8779C184.397 7.24317 184.525 7.68778 184.503 8.13828ZM180.1 3.58067V5.74673H181.913C182.064 5.75694 182.215 5.73529 182.357 5.68313C182.499 5.63097 182.63 5.54938 182.741 5.44331C182.852 5.33723 182.941 5.20887 183.002 5.06604C183.064 4.92321 183.097 4.76891 183.099 4.61245C183.093 4.46475 183.057 4.31996 182.995 4.18696C182.933 4.05395 182.845 3.93552 182.737 3.83893C182.629 3.74233 182.503 3.66961 182.367 3.62521C182.231 3.5808 182.088 3.56564 181.946 3.58067H180.1ZM182.025 9.37505C182.215 9.3871 182.405 9.35876 182.584 9.29178C182.764 9.22481 182.928 9.1206 183.066 8.98556C183.191 8.86901 183.29 8.72669 183.358 8.5678C183.427 8.40891 183.462 8.23698 183.462 8.0631C183.463 7.86897 183.425 7.67677 183.349 7.49929C183.273 7.32181 183.161 7.16314 183.022 7.03384C182.882 6.90454 182.717 6.80757 182.539 6.74941C182.36 6.69125 182.171 6.6732 181.985 6.69651H180.1V9.34771L182.025 9.37505Z" fill="white"/>
<path d="M191.977 2.60449L189.413 7.57207V10.3599H188.405V7.57207L185.867 2.60449H186.988L188.899 6.53346L190.844 2.60449H191.977Z" fill="white"/>
<path d="M0 32.0625L2.76825 27.8807C3.56033 28.7663 4.51827 29.4751 5.58353 29.9638C6.64879 30.4525 7.79898 30.7109 8.96384 30.7232C10.282 30.7232 11.4091 30.1424 11.4091 29.0697C11.4091 28.3864 10.8159 27.7851 9.63612 27.3273L7.69177 26.644C6.74864 26.3111 5.82441 25.9233 4.92352 25.4823C2.53756 24.1636 1.32481 22.2093 1.32481 19.6128C1.31353 18.6579 1.51248 17.7129 1.90651 16.8498C2.30055 15.9866 2.87928 15.228 3.59871 14.6316C5.24796 13.2608 7.3197 12.5546 9.4318 12.6432C12.2629 12.5967 15.0152 13.6108 17.1829 15.4993L14.619 19.8383C13.1468 18.6877 11.3669 18.0384 9.52408 17.9797C8.01473 17.9797 7.19084 18.622 7.19084 19.442C7.19084 20.1253 7.78403 20.6651 8.93087 21.1229L10.8489 21.8609C11.9364 22.2572 12.8262 22.592 13.3535 22.838C16.1217 24.0611 17.5124 26.0427 17.5124 28.7622C17.5263 29.7552 17.3216 30.7384 16.9139 31.6371C16.5061 32.5358 15.9061 33.3263 15.1594 33.9484C13.5951 35.2877 11.5014 35.971 8.87815 35.9983C7.21116 36.0518 5.55299 35.7274 4.01952 35.0476C2.48605 34.3678 1.11426 33.349 0 32.0625Z" fill="#382E2D"/>
<path d="M19.4968 18.7109H24.7169V28.2771C24.6636 28.6647 24.6913 29.0596 24.798 29.4352C24.9048 29.8107 25.0881 30.1581 25.3356 30.4538C25.583 30.7496 25.8889 30.9867 26.2325 31.1492C26.5761 31.3118 26.9493 31.3959 27.3269 31.3959C27.7046 31.3959 28.0778 31.3118 28.4214 31.1492C28.765 30.9867 29.0709 30.7496 29.3183 30.4538C29.5658 30.1581 29.7491 29.8107 29.8559 29.4352C29.9626 29.0596 29.9903 28.6647 29.937 28.2771V18.7109H35.1505V28.2156C35.1505 33.1969 32.178 36.0052 27.3138 36.0052C22.4496 36.0052 19.4968 33.1969 19.4968 28.2156V18.7109Z" fill="#382E2D"/>
<path d="M53.5259 20.8485C55.0311 22.5551 55.8351 24.8029 55.7669 27.1143C55.8115 29.4463 54.9985 31.7085 53.493 33.4417C52.7868 34.2694 51.915 34.9275 50.9383 35.37C49.9616 35.8126 48.9035 36.029 47.8378 36.0041C46.1291 36.0369 44.4748 35.3803 43.2241 34.1728V42.9942H38.004V18.7098H43.1318V20.2814C43.7409 19.6362 44.4709 19.1271 45.2768 18.7851C46.0827 18.4432 46.9475 18.2757 47.8181 18.293C48.8948 18.2621 49.965 18.4762 50.9533 18.92C51.9417 19.3639 52.8243 20.0268 53.5391 20.8622M46.7965 23.2947C46.3053 23.2861 45.8176 23.3811 45.3629 23.5739C44.9082 23.7667 44.496 24.0532 44.1515 24.4162C43.8069 24.7792 43.5371 25.211 43.3584 25.6854C43.1797 26.1597 43.0959 26.6668 43.1121 27.1758C43.104 28.1912 43.4748 29.1705 44.1469 29.909C44.4848 30.2795 44.8942 30.572 45.3485 30.7675C45.8027 30.9629 46.2916 31.0569 46.7833 31.0433C47.2757 31.0631 47.7664 30.972 48.2216 30.7762C48.6767 30.5803 49.0855 30.2845 49.4197 29.909C50.0918 29.1705 50.4625 28.1912 50.4545 27.1758C50.4733 26.6684 50.3923 26.1624 50.2162 25.6885C50.0402 25.2147 49.7728 24.783 49.4305 24.4198C49.0882 24.0566 48.6781 23.7695 48.2252 23.5761C47.7724 23.3826 47.2862 23.2869 46.7965 23.2947Z" fill="#382E2D"/>
<path d="M73.9449 28.8867H62.3315C62.9247 30.6633 64.2495 31.5447 66.2861 31.5447C68.0418 31.5556 69.7591 31.0122 71.2096 29.9868L73.2397 33.622C71.1478 35.1815 68.6249 35.9966 66.0488 35.9452C63.1619 35.9452 60.9474 35.0911 59.3853 33.4101C58.6179 32.5765 58.0172 31.5937 57.6179 30.5183C57.2186 29.4429 57.0285 28.2962 57.0586 27.1443C57.0243 25.9744 57.2212 24.8095 57.6372 23.7214C58.0532 22.6333 58.6795 21.6449 59.4775 20.8169C61.1401 19.235 63.3014 18.3348 65.5575 18.2845C67.8137 18.2342 70.0103 19.0372 71.7369 20.5436C72.5285 21.3365 73.1483 22.2949 73.5552 23.3552C73.962 24.4155 74.1465 25.5534 74.0965 26.6933C74.0937 27.4191 74.0342 28.1435 73.9185 28.8594M62.2458 25.1627H69.2059C69.0223 24.3868 68.5821 23.702 67.962 23.2277C67.3418 22.7533 66.5809 22.5192 65.8116 22.5662C65.0263 22.5046 64.2451 22.7308 63.6042 23.2054C62.9634 23.6799 62.5036 24.3727 62.3051 25.1627" fill="#382E2D"/>
<path d="M76.304 35.5815V18.7108H81.2868V20.7607C81.7245 19.9743 82.3579 19.3242 83.1208 18.8783C83.8837 18.4323 84.7481 18.2069 85.6237 18.2257C86.3245 18.2232 87.0173 18.3795 87.6537 18.6835L87.2451 23.8151C86.553 23.5594 85.8245 23.4254 85.0898 23.4188C82.7039 23.4188 81.4977 25.0382 81.4977 28.277V35.5542L76.304 35.5815Z" fill="#382E2D"/>
<path d="M88.9795 35.5847V12.2637H94.0546V21.003C94.6043 20.1305 95.3624 19.4203 96.2551 18.9414C97.1479 18.4624 98.145 18.2311 99.1495 18.2699C100.806 18.2362 102.409 18.8849 103.605 20.0738C104.811 21.2627 105.431 23.0051 105.431 25.2395V35.5983H100.184V26.6608C100.184 24.4605 99.0968 23.176 97.3304 23.176C95.4387 23.176 94.1469 24.6109 94.1469 26.7838V35.5847H88.9795Z" fill="#382E2D"/>
<path d="M124.274 28.8855H112.66C113.247 30.662 114.572 31.5435 116.615 31.5435C118.371 31.5544 120.088 31.011 121.539 29.9856L123.575 33.6207C121.482 35.1785 118.96 35.9934 116.384 35.944C113.491 35.944 111.283 35.0898 109.721 33.4089C108.957 32.5687 108.362 31.5799 107.969 30.4997C107.577 29.4195 107.395 28.2694 107.434 27.1157C107.399 25.9463 107.594 24.7817 108.009 23.6936C108.424 22.6055 109.049 21.6169 109.846 20.7884C111.51 19.2059 113.672 18.3055 115.929 18.2552C118.187 18.2049 120.384 19.0082 122.112 20.5151C122.904 21.3079 123.523 22.2663 123.93 23.3266C124.337 24.3869 124.522 25.5248 124.472 26.6648C124.469 27.3906 124.409 28.115 124.294 28.8308M112.621 25.1342H119.495C119.312 24.3594 118.873 23.6756 118.254 23.2014C117.635 22.7271 116.876 22.4923 116.107 22.5376C115.322 22.4747 114.54 22.7004 113.899 23.1751C113.258 23.6499 112.798 24.3434 112.601 25.1342" fill="#382E2D"/>
<path d="M126.634 35.5802V18.7095H131.617V20.7594C132.252 19.6684 133.251 18.857 134.425 18.4791C135.598 18.1012 136.865 18.1832 137.984 18.7095L137.569 23.8411C136.879 23.5848 136.153 23.4509 135.42 23.4448C133.028 23.4448 131.821 25.0642 131.821 28.303V35.5802H126.634Z" fill="#382E2D"/>
<path d="M140.956 33.4727C139.384 31.7697 138.506 29.503 138.506 27.1453C138.506 24.7877 139.384 22.521 140.956 20.818C142.697 19.1482 144.981 18.2207 147.353 18.2207C149.725 18.2207 152.009 19.1482 153.75 20.818C155.335 22.5145 156.221 24.7836 156.221 27.1453C156.221 29.5071 155.335 31.7762 153.75 33.4727C152.001 35.1263 149.72 36.043 147.353 36.043C144.986 36.043 142.705 35.1263 140.956 33.4727ZM149.973 29.899C150.319 29.5319 150.592 29.0969 150.774 28.6194C150.956 28.1418 151.045 27.6314 151.034 27.118C151.036 26.6159 150.942 26.1184 150.757 25.6541C150.573 25.1899 150.301 24.7681 149.959 24.4131C149.616 24.058 149.21 23.7768 148.762 23.5854C148.314 23.3941 147.834 23.2966 147.35 23.2984C146.866 23.285 146.384 23.3787 145.938 23.5731C145.491 23.7675 145.089 24.0581 144.759 24.4258C144.411 24.7735 144.136 25.1921 143.951 25.6554C143.766 26.1187 143.675 26.6167 143.685 27.118C143.673 27.6316 143.761 28.1425 143.943 28.6202C144.126 29.098 144.399 29.5329 144.746 29.899C145.082 30.2567 145.486 30.5388 145.931 30.7281C146.377 30.9173 146.855 31.0096 147.337 30.9991C147.825 31.0121 148.311 30.9212 148.765 30.732C149.218 30.5428 149.629 30.2593 149.973 29.899Z" fill="#382E2D"/>
<path d="M174.406 28.8855H162.799C163.386 30.662 164.71 31.5435 166.754 31.5435C168.509 31.5544 170.227 31.011 171.677 29.9856L173.714 33.6207C171.621 35.1785 169.099 35.9934 166.523 35.944C163.629 35.944 161.421 35.0898 159.859 33.4089C159.088 32.5726 158.484 31.5855 158.083 30.5052C157.683 29.4248 157.493 28.2727 157.526 27.1157C157.491 25.9463 157.687 24.7817 158.102 23.6936C158.516 22.6055 159.142 21.6169 159.938 20.7884C161.602 19.2059 163.764 18.3055 166.022 18.2552C168.279 18.2049 170.477 19.0082 172.204 20.5151C172.996 21.3079 173.616 22.2663 174.023 23.3266C174.429 24.3869 174.614 25.5248 174.564 26.6648C174.561 27.3906 174.502 28.115 174.386 28.8308M162.713 25.1342H169.608C169.424 24.3594 168.985 23.6756 168.366 23.2014C167.747 22.7271 166.988 22.4923 166.22 22.5376C165.434 22.4747 164.652 22.7004 164.011 23.1751C163.37 23.6499 162.911 24.3434 162.713 25.1342Z" fill="#382E2D"/>
<path d="M175.368 33.1355L177.695 29.5004C179.011 30.7985 180.743 31.5478 182.559 31.6049C183.706 31.6049 184.299 31.2428 184.299 30.539C184.299 30.1427 184.003 29.8557 183.409 29.5892C183.324 29.5892 182.75 29.3774 181.617 28.9811C180.483 28.5847 179.758 28.2978 179.376 28.1201C177.339 27.143 176.337 25.6192 176.337 23.542C176.322 22.7951 176.48 22.0554 176.798 21.3849C177.116 20.7144 177.584 20.1325 178.163 19.6882C179.58 18.6199 181.31 18.0913 183.06 18.1918C185.272 18.1523 187.424 18.9325 189.13 20.392L186.889 23.9383C185.752 23.059 184.385 22.5565 182.968 22.4965C182.118 22.4965 181.498 22.927 181.498 23.4463C181.498 23.9656 181.999 24.3961 182.968 24.6694C184.289 25.0309 185.573 25.5229 186.804 26.1385C188.781 27.143 189.572 28.4617 189.572 30.416C189.586 31.1993 189.423 31.9752 189.096 32.6813C188.769 33.3874 188.286 34.004 187.687 34.4816C186.209 35.5922 184.408 36.1423 182.585 36.0395C181.257 36.0711 179.936 35.8308 178.698 35.3325C177.46 34.8342 176.328 34.0876 175.368 33.1355Z" fill="#382E2D"/>
<path d="M191.345 33.1345C191.345 32.357 191.643 31.6114 192.173 31.0617C192.704 30.512 193.423 30.2031 194.173 30.2031C194.923 30.2031 195.642 30.512 196.172 31.0617C196.702 31.6114 197 32.357 197 33.1345C197.009 33.5167 196.944 33.897 196.809 34.2527C196.673 34.6084 196.471 34.9325 196.213 35.2057C195.955 35.4789 195.646 35.6958 195.306 35.8436C194.966 35.9913 194.601 36.0669 194.232 36.0658C193.855 36.0778 193.479 36.0107 193.128 35.8684C192.776 35.7261 192.456 35.5116 192.186 35.2378C191.916 34.9641 191.703 34.6366 191.558 34.2752C191.414 33.9137 191.341 33.5257 191.345 33.1345Z" fill="#382E2D"/>
</g>
<defs>
<clipPath id="clip0_254_94">
<rect width="197" height="43" fill="white"/>
</clipPath>
</defs>
</svg>
