<svg width="543" height="515" viewBox="0 0 543 515" fill="none" xmlns="http://www.w3.org/2000/svg">
<g clip-path="url(#clip0_254_25)">
<path d="M382.908 265.04C398.036 266.615 413.03 260.851 423.232 249.558C428.744 243.459 435.244 238.248 441.393 238.248C456.202 238.248 479.791 234.193 483.007 229.082C484.683 226.418 470.309 211.455 485.822 207.92C501.335 204.401 516.145 196.643 521.791 180.407C525.728 169.08 529.665 148.136 531.692 136.524C532.58 131.464 534.238 126.572 536.684 122.064C541.844 112.581 549.115 95.9088 533.786 100.014C512.627 105.661 519.68 105.661 494.299 95.7747C468.918 85.9057 456.923 58.393 445.648 69.6863C436.786 78.55 416.163 72.1828 407.736 69.0495C405.256 68.128 402.71 67.4243 400.113 66.9216C390.38 65.0785 365.82 58.9962 365.25 44.3015C364.547 25.9709 277.096 21.028 260.879 34.4325C244.662 47.837 215.746 47.837 206.582 42.8941C197.418 37.9512 94.705 -4.74211 55.5196 24.3121C27.3913 45.1896 69.3912 70.5743 51.4151 83.7777C23.9401 103.935 2.04388 150.063 2.04388 155.71C2.04388 161.356 54.2296 107.755 119.818 128.197C185.406 148.639 215.025 191.667 225.597 198.721C236.168 205.775 253.809 261.488 312.344 261.488C341.578 261.504 365.904 263.264 382.908 265.04Z" fill="#00C9FF"/>
<path d="M242.919 209.328C242.919 209.328 148.013 130.845 133.991 130.225C119.969 129.605 141.111 122.903 142.418 117.558C143.724 112.213 134.527 92.2736 148.616 87.5318C162.706 82.7899 155.267 83.4937 161.181 73.6749C167.095 63.8561 210.837 68.9498 213.685 71.061C216.55 73.1722 242.919 209.328 242.919 209.328Z" fill="#0076B7"/>
<path d="M273.343 214.388C273.343 214.388 270.311 248.301 283.093 251.166C295.876 254.031 359.403 258.086 379.725 251.418C400.046 244.749 431.056 231.981 427.454 224.273C423.869 216.566 422.512 204.82 444.006 194.231C465.5 183.641 475.619 158.659 475.954 152.124C476.289 145.589 481.282 146.645 462.384 156.397C443.487 166.148 414.135 174.409 409.947 166.232C405.759 158.055 385.119 162.06 368.416 172.097C351.714 182.133 333.453 216.164 313.55 198.436C293.664 180.692 273.343 214.388 273.343 214.388Z" fill="#0076B7"/>
<path d="M0.636612 164.875C5.59552 177.475 38.9844 207.183 57.3457 211.238C73.5627 214.824 79.8786 215.511 106.415 197.314C135.784 177.191 150.141 169.801 179.057 181.798C207.972 193.795 224.189 205.776 220.671 226.234C217.153 246.693 195.223 281.695 182.592 281.947C173.679 282.131 173.428 306.628 186.83 317.921C200.233 329.197 222.799 323.567 234.074 311.57C245.348 299.573 241.83 270.67 278.503 275.596C315.175 280.522 346.42 265.241 348.531 277.238C350.641 289.235 316.582 291.816 320.821 305.22C325.06 318.625 348.33 322.847 343.387 339.787C338.445 356.71 351.848 375.057 363.139 364.468C374.414 353.895 404.033 332.029 431.542 342.602C459.05 353.175 466.104 334.844 444.241 320.032C422.378 305.22 410.517 278.512 371.734 264.403C359.303 259.879 298.02 296.289 240.457 213.048C209.078 167.657 185.306 171.075 143.741 149.879C113.301 134.38 84.6699 124.075 51.1806 130.643C40.4586 132.755 25.3809 140.144 22.1978 141.283C15.5301 143.663 12.347 145.958 9.83404 147.851C6.96927 150.03 -2.12764 157.838 0.636612 164.875Z" fill="#0076B7"/>
<path d="M283.127 236.405C283.746 236.556 284.115 237.209 283.897 237.813C280.898 246.458 261.314 309.242 266.91 340.96C274.465 383.72 295.792 425.861 288.957 473.882C286.209 493.201 282.741 505.952 279.592 514.313C279.123 515.57 277.23 515 277.514 513.693C282.105 493.335 286.176 453.641 259.957 354.817C248.297 310.867 272.053 244.012 275.135 235.5C275.32 234.981 275.873 234.696 276.409 234.813L283.127 236.405Z" fill="#9FAD6B"/>
<path d="M290.062 249.574C276.241 248.033 261.984 244.079 253.172 233.305C242.333 220.051 228.059 195.471 211.457 165.076C152.855 57.8067 209.112 80.9294 229.316 63.4868C249.52 46.0443 256.741 21.3968 267.194 16.8895C277.665 12.3823 294.703 16.1858 308.809 4.89252C317.755 -2.26212 353.221 -0.284963 357.46 2.78131C370.159 11.9466 364.061 36.7617 368.735 49.3284C373.409 61.9118 404.251 91.9881 400.767 121.21C397.282 150.432 380.964 188.802 358.214 208.808C335.446 228.814 327.874 240.359 318.023 244.598C313.634 246.475 298.841 250.546 290.062 249.574Z" fill="#55DFFF"/>
<path d="M361.497 169.499C364.178 130.291 368.936 55.5612 312.947 81.9512C282.641 96.2438 221.073 95.6573 238.161 161.088C247.995 198.771 260.929 233.975 294.988 236.304C329.047 238.633 358.817 208.707 361.497 169.499Z" fill="#0076B7"/>
<path d="M346.621 178.33C347.743 199.727 329.03 225.379 303.197 226.753C277.364 228.127 257.511 208.239 256.372 186.842C256.204 183.792 256.489 180.793 257.143 177.894C257.394 174.778 259.052 174.409 259.873 171.594C260.292 170.153 260.812 168.762 261.532 167.455C261.9 166.819 262.252 166.148 262.638 165.495C263.609 163.853 265.335 162.663 267.245 162.63C269.774 162.596 270.847 158.826 272.287 155.693C272.354 147.935 276.961 150.365 280.731 150.666C283.763 149.242 287.013 148.086 290.431 147.231C291.721 146.913 293.128 146.846 294.435 146.561C295.155 146.394 295.926 146.494 296.563 146.88C298.841 148.253 299.327 145.439 301.103 145.64C326.953 144.249 345.481 156.933 346.621 178.33Z" fill="#372E2C"/>
<path d="M325.344 168.93C325.864 178.715 321.575 188.785 309.747 189.422C297.92 190.059 283.043 180.994 282.524 171.192C282.004 161.407 291.168 152.962 302.996 152.325C314.823 151.705 324.825 159.145 325.344 168.93Z" fill="#9FAD6B"/>
<path d="M422.948 292.837C406.731 280.84 420.937 243.978 403.313 239.756C385.689 235.516 328.561 250.328 303.884 250.328C294.787 250.328 286.058 248.72 278.67 246.692C270.227 244.38 262.939 239.069 258.148 231.746C244.36 210.668 224.139 183.088 200.919 164.992C159.305 132.553 133.924 112.798 89.4948 113.502C45.0657 114.206 18.1771 127.091 6.18189 144.735C0.938187 152.442 0.150793 156.514 0.0167688 158.725C-0.167515 162.077 0.670138 162.931 0.670138 162.931C0.670138 162.931 0.485854 159.949 1.87636 157.703C8.64459 146.879 42.268 117.926 110.168 141.953C189.862 170.17 199.194 178.815 217.773 197.28C245.214 224.558 264.648 252.272 282.071 264.353C282.825 264.872 283.562 265.408 284.266 265.995C289.057 269.916 305.157 281.175 330.655 279.952C360.442 278.511 369.07 268.374 391.837 277.69C402.392 282.013 421.457 298.182 439.014 316.647C444.509 322.428 453.974 331.61 455.901 334.709C457.141 336.703 456.621 337.725 456.789 337.441C460.759 330.973 439.165 304.834 422.948 292.837Z" fill="#55DFFF"/>
<path d="M330.873 174.024C331.526 186.423 326.098 199.174 311.121 199.961C296.144 200.749 277.297 189.288 276.643 176.889C275.99 164.49 287.6 153.8 302.577 153.012C317.554 152.208 330.219 161.625 330.873 174.024Z" fill="#9FAD6B"/>
</g>
<defs>
<clipPath id="clip0_254_25">
<rect width="543" height="515" fill="white"/>
</clipPath>
</defs>
</svg>
