<svg width="115" height="26" viewBox="0 0 115 26" fill="none" xmlns="http://www.w3.org/2000/svg">
<path d="M11.2483 16.1978L17.7592 1.04932H21.963L11.3553 25.0552L0 1.04932H4.27932L11.2483 16.1978Z" fill="white"/>
<path d="M29.4518 6.97292C27.847 8.46082 26.9458 10.4447 26.9458 12.5429C26.9458 14.654 27.847 16.6238 29.4518 18.1129C31.0565 19.6008 33.1962 20.4363 35.4592 20.4363C37.7209 20.4363 39.8606 19.6008 41.4666 18.1129C43.0713 16.625 43.9725 14.6411 43.9725 12.5429C43.9725 10.4318 43.0713 8.46082 41.4666 6.97292C39.8606 5.48503 37.7209 4.64831 35.4592 4.64831C33.1962 4.64831 31.0565 5.48503 29.4518 6.97292ZM30.66 23.1274C29.1623 22.5462 27.847 21.6967 26.7168 20.6476C25.5853 19.5996 24.6841 18.3801 24.0422 16.9914C23.4003 15.6027 23.0793 14.0868 23.0793 12.5277C23.0793 10.9838 23.4154 9.46675 24.0422 8.03604C24.669 6.67534 25.5853 5.47102 26.7168 4.3799C27.8483 3.33079 29.1623 2.52324 30.66 1.92808C32.1578 1.33293 33.7928 1.03418 35.4743 1.03418C37.1558 1.03418 38.7757 1.34693 40.3187 1.92808C41.7863 2.52324 43.0852 3.31679 44.262 4.3799C45.3935 5.45702 46.2645 6.67534 46.9064 8.03604C47.5483 9.46792 47.8692 10.9838 47.8692 12.5277C47.8692 14.0728 47.5332 15.5887 46.9064 16.9914C46.2645 18.3801 45.4086 19.5996 44.262 20.6476C43.1003 21.6967 41.7863 22.5322 40.3187 23.1274C38.7757 23.7225 37.1394 24.0201 35.4743 24.0201C33.8079 24.0201 32.1578 23.7225 30.66 23.1274Z" fill="white"/>
<path d="M68.2123 12.5417C68.2123 10.1891 67.51 8.23322 66.2099 6.9017C64.7423 5.3858 62.5724 4.63427 59.699 4.63427H57.6965V20.4211H59.699C62.5724 20.4211 64.7423 19.6416 66.2099 18.1677C67.5251 16.8502 68.2123 14.8652 68.2123 12.5417ZM72.0952 12.5417C72.0952 15.7871 71.0556 18.5785 69.0846 20.5903C68.0147 21.7106 66.6844 22.5742 65.1111 23.1273C63.5063 23.7225 61.7027 24.0201 59.7003 24.0201H55.1302H53.8313V1.04932H57.6978H59.7003C61.7027 1.04932 63.5063 1.33289 65.1111 1.94205C66.6856 2.49403 68.0147 3.37277 69.0846 4.47906C71.0556 6.50493 72.0952 9.29634 72.0952 12.5417Z" fill="white"/>
<path d="M88.4184 15.886L85.4078 8.88536L82.3971 15.886H88.4184ZM89.8243 19.1022H81.0051L78.8957 24.0199H74.6163L85.4065 0L96.1665 24.035H91.9174L89.8243 19.1022Z" fill="white"/>
<path d="M96.9921 10.4152C96.5641 10.1176 96.2432 9.73486 96.0129 9.31008C95.7687 8.84212 95.6466 8.31815 95.6466 7.751V1.03271H97.3583V7.765C97.3583 8.37416 97.6025 8.84212 98.0456 9.1537C98.4584 9.45128 99.0701 9.63566 99.7271 9.63566C100.369 9.63566 100.964 9.45128 101.407 9.1537C101.85 8.84212 102.079 8.37416 102.079 7.765V1.03271H103.806V7.765C103.806 8.33098 103.669 8.85612 103.44 9.32408C103.196 9.74886 102.875 10.1176 102.462 10.4304C101.728 10.9543 100.765 11.2379 99.7409 11.2379C98.6736 11.2379 97.7108 10.9403 96.9921 10.4152Z" fill="white"/>
<path d="M111.344 7.60998L110.014 4.50699L108.685 7.60998H111.344ZM111.971 9.04069H108.058L107.125 11.2229H105.23L110.014 0.564941L114.783 11.2369H112.904L111.971 9.04069Z" fill="white"/>
</svg>
