<svg width="115" height="28" viewBox="0 0 115 28" fill="none" xmlns="http://www.w3.org/2000/svg">
<path d="M11.2483 18.018L17.7592 1.49512H21.963L11.3553 27.6789L0 1.49512H4.27932L11.2483 18.018Z" fill="#382E2D"/>
<path d="M29.4518 7.95605C27.8471 9.57893 26.9459 11.7428 26.9459 14.0314C26.9459 16.3339 27.8471 18.4825 29.4518 20.1067C31.0566 21.7296 33.1962 22.6409 35.4592 22.6409C37.721 22.6409 39.8606 21.7296 41.4667 20.1067C43.0714 18.4838 43.9726 16.3199 43.9726 14.0314C43.9726 11.7288 43.0714 9.57893 41.4667 7.95605C39.8606 6.33317 37.721 5.42053 35.4592 5.42053C33.1962 5.42053 31.0566 6.33317 29.4518 7.95605ZM30.6601 25.5761C29.1623 24.9422 27.8471 24.0156 26.7168 22.8713C25.5853 21.7283 24.6842 20.3982 24.0423 18.8835C23.4004 17.3688 23.0794 15.7153 23.0794 14.0148C23.0794 12.3308 23.4155 10.6761 24.0423 9.11562C24.669 7.63147 25.5853 6.31789 26.7168 5.12778C27.8483 3.98348 29.1623 3.10267 30.6601 2.45352C32.1579 1.80437 33.7928 1.47852 35.4743 1.47852C37.1559 1.47852 38.7757 1.81964 40.3188 2.45352C41.7863 3.10267 43.0852 3.96821 44.2621 5.12778C45.3936 6.30262 46.2645 7.63147 46.9064 9.11562C47.5483 10.6774 47.8693 12.3308 47.8693 14.0148C47.8693 15.7001 47.5332 17.3535 46.9064 18.8835C46.2645 20.3982 45.4087 21.7283 44.2621 22.8713C43.1003 24.0156 41.7863 24.927 40.3188 25.5761C38.7757 26.2253 37.1395 26.5498 35.4743 26.5498C33.8079 26.5498 32.1579 26.2253 30.6601 25.5761Z" fill="#382E2D"/>
<path d="M68.2124 14.0301C68.2124 11.4641 67.5101 9.33078 66.2099 7.87846C64.7424 6.22503 62.5725 5.40531 59.6991 5.40531H57.6966V22.6244H59.6991C62.5725 22.6244 64.7424 21.7742 66.2099 20.1666C67.5252 18.7295 68.2124 16.5644 68.2124 14.0301ZM72.0953 14.0301C72.0953 17.5699 71.0556 20.6146 69.0846 22.809C68.0148 24.0309 66.6844 24.9728 65.1112 25.5762C63.5064 26.2253 61.7028 26.5499 59.7003 26.5499H55.1303H53.8314V1.49512H57.6979H59.7003C61.7028 1.49512 63.5064 1.80442 65.1112 2.46885C66.6857 3.07091 68.0148 4.02936 69.0846 5.23602C71.0556 7.44569 72.0953 10.4903 72.0953 14.0301Z" fill="#382E2D"/>
<path d="M88.4183 17.6779L85.4077 10.0421L82.3971 17.6779H88.4183ZM89.8242 21.1859H81.0051L78.8956 26.5497H74.6163L85.4065 0.350586L96.1664 26.5662H91.9173L89.8242 21.1859Z" fill="#382E2D"/>
<path d="M96.9921 11.7108C96.5641 11.3862 96.2432 10.9687 96.0129 10.5054C95.7687 9.99496 95.6466 9.42345 95.6466 8.80485V1.47705H97.3583V8.82012C97.3583 9.48455 97.6025 9.99496 98.0456 10.3348C98.4584 10.6594 99.0701 10.8605 99.7271 10.8605C100.369 10.8605 100.964 10.6594 101.407 10.3348C101.85 9.99496 102.079 9.48455 102.079 8.82012V1.47705H103.806V8.82012C103.806 9.43745 103.669 10.0102 103.44 10.5206C103.196 10.984 102.875 11.3862 102.462 11.7273C101.728 12.2988 100.765 12.6081 99.7409 12.6081C98.6736 12.6081 97.7108 12.2835 96.9921 11.7108Z" fill="#382E2D"/>
<path d="M111.344 8.65099L110.014 5.26648L108.685 8.65099H111.344ZM111.971 10.2115H108.058L107.125 12.5917H105.23L110.014 0.966797L114.783 12.607H112.904L111.971 10.2115Z" fill="#382E2D"/>
</svg>
