<svg width="31" height="30" viewBox="0 0 31 30" fill="none" xmlns="http://www.w3.org/2000/svg">
<g id="instagram-round-svgrepo-com 1" clip-path="url(#clip0_254_76)">
<g id="Group">
<path id="Vector" d="M15.625 17.6367C17.0781 17.6367 18.2676 16.4531 18.2676 14.9941C18.2676 14.4199 18.0801 13.8867 17.7695 13.4531C17.2891 12.791 16.5098 12.3516 15.6309 12.3516C14.752 12.3516 13.9727 12.7852 13.4922 13.4531C13.1816 13.8867 12.9941 14.4199 12.9941 14.9941C12.9883 16.4531 14.1719 17.6367 15.625 17.6367Z" fill="#382E2D"/>
<path id="Vector_2" d="M21.3906 11.7715V9.55664V9.22852H21.0625L18.8477 9.23438L18.8594 11.7773L21.3906 11.7715Z" fill="#382E2D"/>
<path id="Vector_3" d="M19.7266 15C19.7266 17.2617 17.8867 19.1016 15.625 19.1016C13.3633 19.1016 11.5234 17.2617 11.5234 15C11.5234 14.4551 11.6348 13.9336 11.8281 13.459H9.58984V19.5996C9.58984 20.3906 10.2344 21.0352 11.0254 21.0352H20.2246C21.0156 21.0352 21.6602 20.3906 21.6602 19.5996V13.459H19.4219C19.6211 13.9336 19.7266 14.4551 19.7266 15Z" fill="#382E2D"/>
<path id="Vector_4" d="M15.625 0C7.33984 0 0.625 6.71484 0.625 15C0.625 23.2852 7.33984 30 15.625 30C23.9102 30 30.625 23.2852 30.625 15C30.625 6.71484 23.9102 0 15.625 0ZM23.125 13.459V19.5996C23.125 21.1992 21.8242 22.5 20.2246 22.5H11.0254C9.42578 22.5 8.125 21.1992 8.125 19.5996V13.459V10.3945C8.125 8.79492 9.42578 7.49414 11.0254 7.49414H20.2246C21.8242 7.49414 23.125 8.79492 23.125 10.3945V13.459Z" fill="#382E2D"/>
</g>
</g>
<defs>
<clipPath id="clip0_254_76">
<rect width="30" height="30" fill="white" transform="translate(0.625)"/>
</clipPath>
</defs>
</svg>
