<svg width="42" height="42" viewBox="0 0 42 42" fill="none" xmlns="http://www.w3.org/2000/svg">
<circle cx="21" cy="21" r="21" fill="#32B8DF"/>
<path d="M26.1113 23.9984L26.6252 23.4574L25.3982 22.292L24.8843 22.833L26.1113 23.9984ZM28.3159 23.2296L30.4713 24.4703L31.3155 23.0037L29.1602 21.763L28.3159 23.2296ZM30.8873 27.0424L29.2846 28.7297L30.5116 29.8951L32.1143 28.2078L30.8873 27.0424ZM28.3203 29.2703C26.7014 29.4302 22.4772 29.2938 17.8922 24.4666L16.6652 25.632C21.6622 30.893 26.429 31.1575 28.4865 30.9544L28.3203 29.2703ZM17.8922 24.4666C13.5193 19.8626 12.7858 15.9792 12.6943 14.2759L11.0045 14.3666C11.1165 16.4528 12.0023 20.7229 16.6652 25.632L17.8922 24.4666ZM19.4438 16.9788L19.7674 16.6381L18.5404 15.4727L18.2168 15.8134L19.4438 16.9788ZM20.0215 12.3968L18.599 10.3847L17.2172 11.3617L18.6398 13.3737L20.0215 12.3968ZM13.784 9.95091L12.0132 11.8152L13.2402 12.9806L15.0109 11.1163L13.784 9.95091ZM18.8303 16.3961C18.2168 15.8134 18.216 15.8142 18.2153 15.815C18.215 15.8153 18.2142 15.8161 18.2137 15.8167C18.2126 15.8179 18.2115 15.819 18.2104 15.8202C18.2082 15.8226 18.2059 15.8251 18.2035 15.8277C18.1988 15.8329 18.1938 15.8385 18.1885 15.8446C18.1779 15.8567 18.1663 15.8706 18.1539 15.8863C18.1291 15.9176 18.1011 15.9561 18.0716 16.0021C18.0126 16.0944 17.9486 16.2158 17.8944 16.3682C17.7842 16.6779 17.7241 17.0881 17.7992 17.6004C17.9466 18.6069 18.6061 19.9603 20.3292 21.7744L21.5562 20.609C19.9456 18.9133 19.5489 17.8689 19.4735 17.3551C19.4372 17.1071 19.4741 16.9765 19.4887 16.9355C19.4969 16.9124 19.5023 16.906 19.497 16.9142C19.4945 16.9182 19.4894 16.9257 19.4809 16.9365C19.4766 16.9419 19.4715 16.9481 19.4654 16.9551C19.4623 16.9587 19.459 16.9624 19.4554 16.9663C19.4536 16.9683 19.4517 16.9703 19.4498 16.9724C19.4488 16.9735 19.4479 16.9745 19.4469 16.9756C19.4464 16.9761 19.4456 16.9769 19.4453 16.9772C19.4446 16.978 19.4438 16.9788 18.8303 16.3961ZM20.3292 21.7744C22.0473 23.5832 23.3448 24.2943 24.3348 24.4551C24.8428 24.5375 25.254 24.4716 25.5654 24.3489C25.7176 24.2889 25.8379 24.2184 25.9283 24.1543C25.9734 24.1223 26.011 24.0919 26.0412 24.0654C26.0565 24.0521 26.0698 24.0397 26.0814 24.0284C26.0873 24.0229 26.0927 24.0174 26.0976 24.0125C26.1001 24.01 26.1025 24.0075 26.1047 24.0051C26.1059 24.004 26.107 24.0029 26.1081 24.0018C26.1087 24.0012 26.1095 24.0003 26.1097 24.0001C26.1105 23.9992 26.1113 23.9984 25.4978 23.4157C24.8843 22.833 24.8851 22.8322 24.8859 22.8314C24.8861 22.8311 24.8869 22.8303 24.8873 22.8297C24.8883 22.8287 24.8894 22.8277 24.8904 22.8267C24.8924 22.8246 24.8943 22.8226 24.8961 22.8207C24.9 22.817 24.9036 22.8134 24.907 22.8101C24.9137 22.8035 24.9199 22.7979 24.9254 22.7932C24.9361 22.7837 24.9441 22.7776 24.9493 22.774C24.9599 22.7664 24.9587 22.769 24.9444 22.7747C24.9226 22.7832 24.8201 22.8194 24.6061 22.7847C24.1519 22.7109 23.172 22.3101 21.5562 20.609L20.3292 21.7744ZM18.599 10.3847C17.4555 8.76737 15.1673 8.49451 13.784 9.95091L15.0109 11.1163C15.6008 10.4953 16.6392 10.5441 17.2172 11.3617L18.599 10.3847ZM12.6943 14.2759C12.6702 13.8254 12.8663 13.3742 13.2402 12.9806L12.0132 11.8152C11.4087 12.4517 10.9492 13.3358 11.0045 14.3666L12.6943 14.2759ZM29.2846 28.7297C28.9698 29.0612 28.6405 29.2387 28.3203 29.2703L28.4865 30.9544C29.3294 30.8712 30.0115 30.4217 30.5116 29.8951L29.2846 28.7297ZM19.7674 16.6381C20.859 15.4889 20.9363 13.6904 20.0215 12.3968L18.6398 13.3737C19.1161 14.0473 19.043 14.9435 18.5404 15.4727L19.7674 16.6381ZM30.4713 24.4703C31.3973 25.0034 31.5786 26.3146 30.8873 27.0424L32.1143 28.2078C33.5864 26.6578 33.1577 24.064 31.3155 23.0037L30.4713 24.4703ZM26.6252 23.4574C27.06 22.9996 27.7375 22.8967 28.3159 23.2296L29.1602 21.763C27.9209 21.0497 26.3838 21.2542 25.3982 22.292L26.6252 23.4574Z" fill="white"/>
</svg>
