<svg width="27" height="22" viewBox="0 0 27 22" fill="none" xmlns="http://www.w3.org/2000/svg">
<path d="M24.2834 0.685394C24.2834 0.685394 26.6886 -0.223605 26.4881 1.98397C26.4213 2.89298 25.8201 6.07448 25.3524 9.51571L23.7489 19.7095C23.7489 19.7095 23.6153 21.2029 22.4127 21.4626C21.2101 21.7223 19.4062 20.5536 19.0721 20.2939C18.8049 20.0991 14.0614 17.1773 12.391 15.7489C11.9234 15.3593 11.3889 14.5801 12.4578 13.6711L19.473 7.1783C20.2747 6.39914 21.0765 4.58114 17.7359 6.78872L8.3824 12.957C8.3824 12.957 7.31343 13.6062 5.30914 13.0219L0.966404 11.7233C0.966404 11.7233 -0.637061 10.7494 2.10219 9.77539C8.7833 6.72374 17.001 3.60716 24.2834 0.685394Z" fill="#32B8DF"/>
</svg>
